<svg xmlns="http://www.w3.org/2000/svg" width="23.089" height="17.701" viewBox="0 0 23.089 17.701">
  <g id="email" transform="translate(0 -59.733)">
    <g id="Group_191" data-name="Group 191" transform="translate(0 59.733)">
      <g id="Group_190" data-name="Group 190">
        <path id="Path_175" data-name="Path 175" d="M21.934,59.733H1.154A1.154,1.154,0,0,0,0,60.887V76.28a1.154,1.154,0,0,0,1.154,1.154h20.78a1.154,1.154,0,0,0,1.154-1.154V60.887A1.154,1.154,0,0,0,21.934,59.733Zm.385,16.547a.385.385,0,0,1-.385.385H1.154A.385.385,0,0,1,.77,76.28V60.887a.385.385,0,0,1,.385-.385h20.78a.385.385,0,0,1,.385.385V76.28Z" transform="translate(0 -59.733)" fill="#169f85"/>
        <path id="Path_176" data-name="Path 176" d="M53.792,93.867a.385.385,0,0,0-.281.089l-8.878,7.458a.77.77,0,0,1-.991,0l-8.878-7.458a.385.385,0,0,0-.495.59L43.148,102a1.537,1.537,0,0,0,1.98,0l8.878-7.457a.385.385,0,0,0-.214-.678Z" transform="translate(-32.594 -92.326)" fill="#169f85"/>
        <path id="Path_177" data-name="Path 177" d="M39.868,272.934a.385.385,0,0,0-.371.119l-5.387,5.772a.385.385,0,1,0,.563.525l5.387-5.772a.385.385,0,0,0-.192-.644Z" transform="translate(-32.467 -263.311)" fill="#169f85"/>
        <path id="Path_178" data-name="Path 178" d="M341.873,273.054a.385.385,0,1,0-.563.525l5.387,5.772a.385.385,0,0,0,.563-.525Z" transform="translate(-325.815 -263.311)" fill="#169f85"/>
      </g>
    </g>
  </g>
</svg>
